<?xml version="1.0" encoding="UTF-8"?>
<svg id="Calque_1" data-name="Calque 1" xmlns="http://www.w3.org/2000/svg" viewBox="0 0 440.8 340.49">
  <defs>
    <style>
      .cls-1 {
        fill: #f874d8;
      }

      .cls-2 {
        fill: #070708;
      }
    </style>
  </defs>
  <path class="cls-2" d="M408.27,114.73c18.9,17.32,30.4,43.64,32.3,69.21,5.93,80.13-102.62,69.35-103.8,8.72-.44-22.69,3.68-46.12,1.97-68.88-2.47-32.99-29.78-33.08-42.34-6.26-8.83,38.22-17.81,76.45-26.24,114.76-7.38,33.53-6.96,67.59-36.98,90.02-49.42,36.92-122.23,3.42-115.23-61.23,3.38-31.14,16.72-70.87,23.26-102.74,5.43-26.47,19.72-85.08-2.99-105.03-17.62-15.48-36.08,3.18-43.38,19.66-8.59,19.41-6.55,31.92-5.15,51.87,3.77,53.99,8.43,108.02,13.08,161.98.86,61.85-97.05,67.28-102.11,12.05-3.72-40.55,9.18-108.8,18.91-149.17C30.25,105.36,58,4.59,113.16.27c75.88-5.94,82.17,87.49,88.52,141.55,1.71,14.56.82,36.15,8.48,48.52,10.66,17.2,12.26-6.97,11.57-15.57-.74-9.29-5.21-17.68-7.36-26.64C179.67,3.38,350.42,61.74,408.27,114.73Z"/>
  <path class="cls-1" d="M337.49,235.6c70.47-6.61,76.43,99.52,8.69,104.69-69.9,5.34-76.11-98.37-8.69-104.69Z"/>
</svg>